#!OML:ASF H:\MichaelJackson\Top Level 1\Subject 1\Session 1\male.ASF
:FULLY-SPECIFIED
:DEGREES
672
root 5.42284 15.5476 6.23194 -125.734 63.6941 -137.813
lowerback 4.3376 -0.619267 -6.92671
upperback -4.02291 -1.0933 3.31773
thorax -6.4923 -0.100081 7.53913
lowerneck -4.69444 -17.5565 -9.3745
upperneck 18.2297 -24.9622 10.2639
head 8.9635 -11.65 2.09334
rclavicle -3.22031e-014 5.56597e-014
rhumerus -58.1817 -21.0765 -61.5851
rradius 31.5099
rwrist 4.33088
rhand -34.3287 -35.3396
rfingers 7.12502
rthumb -7.49684 -425.187
lclavicle -3.22031e-014 5.56597e-014
lhumerus 38.0833 16.5698 42.8401
lradius 24.5316
lwrist -14.6707
lhand -48.9155 -7.66754
lfingers 7.12502
lthumb -21.5479 21.1538
rfemur -12.5036 0.927829 -7.1138
rtibia 35.4884
rfoot 32.5253 6.36888
rtoes 16.9318
lfemur -46.9515 3.83473 6.77184
ltibia 65.8226
lfoot -36.4837 -8.03852
ltoes -6.4781
673
root 5.44981 15.5047 6.35042 -127.515 62.8774 -139.662
lowerback 4.22389 -0.575295 -6.62765
upperback -4.04925 -1.0189 3.08513
thorax -6.47144 -0.0842835 7.10462
lowerneck -4.53738 -17.6246 -9.51052
upperneck 18.5078 -25.063 10.2101
head 9.05348 -11.7019 2.08191
rclavicle 7.7526e-014 -6.36111e-015
rhumerus -57.792 -21.0227 -62.1966
rradius 29.5393
rwrist 3.94732
rhand -33.5357 -35.1785
rfingers 7.12502
rthumb -6.73137 -425.052
lclavicle 7.7526e-014 -6.36111e-015
lhumerus 36.7717 15.1038 43.9926
lradius 25.4601
lwrist -14.0785
lhand -48.9922 -6.89246
lfingers 7.12502
lthumb -21.6216 21.9204
rfemur -10.44 2.12135 -6.94617
rtibia 32.2579
rfoot 32.737 4.68204
rtoes 17.4653
lfemur -47.6572 3.57962 7.25149
ltibia 66.0818
lfoot -36.6886 -8.78887
ltoes -6.77112
674
root 5.47428 15.4618 6.47124 -129.039 62.06 -141.24
lowerback 4.13242 -0.510059 -6.31587
upperback -4.06833 -0.915936 2.86622
thorax -6.45911 -0.0542618 6.67738
lowerneck -4.39506 -17.6888 -9.61744
upperneck 18.7596 -25.1616 10.1754
head 9.13606 -11.75 2.07278
rclavicle 6.16232e-014 3.49861e-014
rhumerus -57.4223 -20.7584 -63.0507
rradius 27.8665
rwrist 3.37171
rhand -32.833 -35.1536
rfingers 7.12502
rthumb -6.05297 -425.047
lclavicle 6.16232e-014 3.49861e-014
lhumerus 35.3438 13.6595 45.218
lradius 26.4635
lwrist -13.1111
lhand -49.009 -6.47656
lfingers 7.12502
lthumb -21.6377 22.3344
rfemur -8.49616 3.03245 -6.6802
rtibia 29.1809
rfoot 32.8952 2.80324
rtoes 18.0036
lfemur -48.3452 3.39641 7.77389
ltibia 66.3166
lfoot -36.8755 -9.55072
ltoes -7.04011
675
root 5.4964 15.4194 6.5947 -130.326 61.2717 -142.578
lowerback 4.05022 -0.422372 -6.01819
upperback -4.07688 -0.784453 2.65504
thorax -6.44356 -0.00966419 6.26568
lowerneck -4.28252 -17.7537 -9.69836
upperneck 18.9993 -25.2666 10.1663
head 9.22099 -11.7961 2.06491
rclavicle 2.74323e-014 -2.22639e-014
rhumerus -57.104 -20.434 -64.0164
rradius 26.4678
rwrist 2.78938
rhand -32.1686 -35.1373
rfingers 7.12502
rthumb -5.4115 -425.048
lclavicle 2.74323e-014 -2.22639e-014
lhumerus 33.8433 12.3115 46.5651
lradius 27.5089
lwrist -11.8922
lhand -48.9788 -6.244
lfingers 7.12502
lthumb -21.6086 22.5703
rfemur -6.69703 3.68727 -6.34986
rtibia 26.2599
rfoot 32.9946 0.840636
rtoes 18.5351
lfemur -49.0095 3.28816 8.31908
ltibia 66.5177
lfoot -37.047 -10.2869
ltoes -7.344
676
root 5.51616 15.3779 6.72103 -131.403 60.5486 -143.708
lowerback 3.98072 -0.310405 -5.7729
upperback -4.0775 -0.624946 2.45135
thorax -6.42893 0.0513129 5.89112
lowerneck -4.1807 -17.8124 -9.78379
upperneck 19.2119 -25.3705 10.2068
head 9.30648 -11.8382 2.07234
rclavicle -2.98177e-014 -5.725e-014
rhumerus -56.8627 -20.1957 -64.9193
rradius 25.2883
rwrist 2.4195
rhand -31.5185 -35.0799
rfingers 7.12502
rthumb -4.78383 -425.006
lclavicle -2.98177e-014 -5.725e-014
lhumerus 32.2578 11.1087 48.0379
lradius 28.5823
lwrist -10.5944
lhand -48.8898 -6.39685
lfingers 7.12502
lthumb -21.5232 22.4273
rfemur -5.06375 4.14117 -5.99788
rtibia 23.4952
rfoot 33.0571 -1.09764
rtoes 19.0819
lfemur -49.6392 3.25716 8.8635
ltibia 66.679
lfoot -37.2011 -10.9837
ltoes -7.69117
677
root 5.53353 15.3374 6.85062 -132.289 59.9069 -144.65
lowerback 3.93084 -0.174874 -5.59683
upperback -4.07259 -0.439598 2.25813
thorax -6.4213 0.128727 5.56636
lowerneck -4.10013 -17.8675 -9.88896
upperneck 19.416 -25.4766 10.2936
head 9.40298 -11.8776 2.09349
rclavicle -3.49861e-014 -9.54166e-015
rhumerus -56.8736 -20.3577 -65.4148
rradius 24.4273
rwrist 2.70226
rhand -30.82 -34.9241
rfingers 7.12502
rthumb -4.10934 -424.864
lclavicle -3.49861e-014 -9.54166e-015
lhumerus 30.5516 10.0773 49.6034
lradius 29.6894
lwrist -9.3931
lhand -48.7959 -6.84323
lfingers 7.12502
lthumb -21.433 21.9912
rfemur -3.61 4.45465 -5.64478
rtibia 20.8918
rfoot 33.1226 -2.92475
rtoes 19.6543
lfemur -50.2267 3.30418 9.40373
ltibia 66.797
lfoot -37.336 -11.6363
ltoes -8.08375
678
root 5.54832 15.298 6.98378 -133.04 59.3747 -145.455
lowerback 3.91532 -0.0119641 -5.50943
upperback -4.05731 -0.226393 2.06105
thorax -6.42458 0.223873 5.28663
lowerneck -4.04385 -17.9272 -10.0062
upperneck 19.6103 -25.5965 10.422
head 9.51034 -11.9195 2.12397
rclavicle 1.19271e-015 3.33958e-014
rhumerus -56.7808 -20.5885 -65.8483
rradius 23.4871
rwrist 3.17556
rhand -30.2031 -34.6408
rfingers 7.12502
rthumb -3.51363 -424.592
lclavicle 1.19271e-015 3.33958e-014
lhumerus 28.7107 9.20287 51.2043
lradius 30.8335
lwrist -8.41999
lhand -48.7209 -7.42401
lfingers 7.12502
lthumb -21.3609 21.4186
rfemur -2.33821 4.6733 -5.33169
rtibia 18.4611
rfoot 33.2561 -4.56471
rtoes 20.2682
lfemur -50.7549 3.41862 9.91233
ltibia 66.871
lfoot -37.4501 -12.2408
ltoes -8.51843
679
root 5.56034 15.2595 7.12042 -133.692 58.9644 -146.166
lowerback 3.9259 0.17727 -5.51111
upperback -4.03024 0.0131101 1.84862
thorax -6.43263 0.335362 5.03936
lowerneck -4.00083 -17.991 -10.1387
upperneck 19.7835 -25.728 10.5882
head 9.62249 -11.9648 2.16476
rclavicle -1.90833e-014 7.95139e-015
rhumerus -56.6218 -20.8775 -66.2374
rradius 22.573
rwrist 3.86281
rhand -29.6452 -34.3097
rfingers 7.12502
rthumb -2.97482 -424.269
lclavicle -1.90833e-014 7.95139e-015
lhumerus 26.7392 8.45265 52.7783
lradius 32.0005
lwrist -7.72707
lhand -48.6955 -8.00952
lfingers 7.12502
lthumb -21.3366 20.8358
rfemur -1.26437 4.80964 -5.08815
rtibia 16.2228
rfoot 33.5204 -5.9253
rtoes 20.8274
lfemur -51.2312 3.58829 10.3724
ltibia 66.9035
lfoot -37.538 -12.7894
ltoes -8.99829
